<svg xmlns="http://www.w3.org/2000/svg" version="1.1" xmlns:xlink="http://www.w3.org/1999/xlink" xmlns:svgjs="http://svgjs.dev/svgjs" viewBox="0 0 800 800"><defs><linearGradient x1="50%" y1="0%" x2="50%" y2="100%" id="ffflurry-grad" gradientTransform="rotate(270)"><stop stop-color="hsl(238, 82%, 6%)" stop-opacity="1" offset="0%"></stop><stop stop-color="hsl(184, 74%, 44%)" stop-opacity="1" offset="45%"></stop><stop stop-color="hsl(332, 87%, 70%)" stop-opacity="1" offset="100%"></stop></linearGradient></defs><rect width="100%" height="100%" fill="hsl(238, 82%, 6%)"></rect><g fill="url(#ffflurry-grad)"><rect width="197" height="3" x="227.5" y="557.5" rx="1.5" transform="rotate(45, 326, 559)" opacity="0.88"></rect><rect width="47" height="3" x="0.5" y="684.5" rx="1.5" transform="rotate(45, 24, 686)" opacity="0.52"></rect><rect width="62" height="3" x="122" y="537.5" rx="1.5" transform="rotate(45, 153, 539)" opacity="0.66"></rect><rect width="200" height="3" x="351" y="663.5" rx="1.5" transform="rotate(45, 451, 665)" opacity="0.88"></rect><rect width="103" height="3" x="707.5" y="332.5" rx="1.5" transform="rotate(45, 759, 334)" opacity="0.87"></rect><rect width="121" height="3" x="568.5" y="423.5" rx="1.5" transform="rotate(45, 629, 425)" opacity="0.52"></rect><rect width="43" height="3" x="78.5" y="752.5" rx="1.5" transform="rotate(45, 100, 754)" opacity="0.56"></rect><rect width="78" height="3" x="229" y="223.5" rx="1.5" transform="rotate(45, 268, 225)" opacity="0.35"></rect><rect width="34" height="3" x="454" y="116.5" rx="1.5" transform="rotate(45, 471, 118)" opacity="0.13"></rect><rect width="129" height="3" x="275.5" y="217.5" rx="1.5" transform="rotate(45, 340, 219)" opacity="0.83"></rect><rect width="30" height="3" x="296" y="611.5" rx="1.5" transform="rotate(45, 311, 613)" opacity="0.31"></rect><rect width="86" height="3" x="219" y="506.5" rx="1.5" transform="rotate(45, 262, 508)" opacity="0.25"></rect><rect width="204" height="3" x="125" y="31.5" rx="1.5" transform="rotate(45, 227, 33)" opacity="0.59"></rect><rect width="143" height="3" x="133.5" y="439.5" rx="1.5" transform="rotate(45, 205, 441)" opacity="0.41"></rect><rect width="80" height="3" x="401" y="17.5" rx="1.5" transform="rotate(45, 441, 19)" opacity="0.14"></rect><rect width="172" height="3" x="167" y="394.5" rx="1.5" transform="rotate(45, 253, 396)" opacity="0.45"></rect><rect width="199" height="3" x="164.5" y="294.5" rx="1.5" transform="rotate(45, 264, 296)" opacity="0.24"></rect><rect width="58" height="3" x="26" y="319.5" rx="1.5" transform="rotate(45, 55, 321)" opacity="0.57"></rect><rect width="36" height="3" x="391" y="104.5" rx="1.5" transform="rotate(45, 409, 106)" opacity="0.17"></rect><rect width="64" height="3" x="265" y="18.5" rx="1.5" transform="rotate(45, 297, 20)" opacity="0.92"></rect><rect width="155" height="3" x="428.5" y="479.5" rx="1.5" transform="rotate(45, 506, 481)" opacity="0.09"></rect><rect width="40" height="3" x="386" y="282.5" rx="1.5" transform="rotate(45, 406, 284)" opacity="0.27"></rect><rect width="161" height="3" x="201.5" y="698.5" rx="1.5" transform="rotate(45, 282, 700)" opacity="0.61"></rect><rect width="285" height="3" x="463.5" y="568.5" rx="1.5" transform="rotate(45, 606, 570)" opacity="0.14"></rect><rect width="71" height="3" x="710.5" y="42.5" rx="1.5" transform="rotate(45, 746, 44)" opacity="0.43"></rect><rect width="260" height="3" x="-97" y="425.5" rx="1.5" transform="rotate(45, 33, 427)" opacity="0.30"></rect><rect width="98" height="3" x="174" y="240.5" rx="1.5" transform="rotate(45, 223, 242)" opacity="0.90"></rect><rect width="250" height="3" x="621" y="492.5" rx="1.5" transform="rotate(45, 746, 494)" opacity="0.58"></rect><rect width="68" height="3" x="497" y="613.5" rx="1.5" transform="rotate(45, 531, 615)" opacity="0.47"></rect><rect width="357" height="3" x="282.5" y="755.5" rx="1.5" transform="rotate(45, 461, 757)" opacity="0.40"></rect><rect width="47" height="3" x="525.5" y="743.5" rx="1.5" transform="rotate(45, 549, 745)" opacity="0.29"></rect><rect width="193" height="3" x="183.5" y="74.5" rx="1.5" transform="rotate(45, 280, 76)" opacity="0.77"></rect><rect width="171" height="3" x="308.5" y="386.5" rx="1.5" transform="rotate(45, 394, 388)" opacity="0.60"></rect><rect width="98" height="3" x="619" y="736.5" rx="1.5" transform="rotate(45, 668, 738)" opacity="0.50"></rect><rect width="119" height="3" x="294.5" y="486.5" rx="1.5" transform="rotate(45, 354, 488)" opacity="0.26"></rect><rect width="194" height="3" x="268" y="175.5" rx="1.5" transform="rotate(45, 365, 177)" opacity="0.13"></rect><rect width="32" height="3" x="586" y="341.5" rx="1.5" transform="rotate(45, 602, 343)" opacity="0.23"></rect><rect width="155" height="3" x="124.5" y="194.5" rx="1.5" transform="rotate(45, 202, 196)" opacity="0.23"></rect><rect width="197" height="3" x="212.5" y="259.5" rx="1.5" transform="rotate(45, 311, 261)" opacity="0.22"></rect><rect width="55" height="3" x="243.5" y="155.5" rx="1.5" transform="rotate(45, 271, 157)" opacity="0.65"></rect><rect width="129" height="3" x="440.5" y="234.5" rx="1.5" transform="rotate(45, 505, 236)" opacity="0.97"></rect><rect width="91" height="3" x="169.5" y="630.5" rx="1.5" transform="rotate(45, 215, 632)" opacity="0.30"></rect><rect width="28" height="3" x="541" y="23.5" rx="1.5" transform="rotate(45, 555, 25)" opacity="0.25"></rect><rect width="173" height="3" x="20.5" y="70.5" rx="1.5" transform="rotate(45, 107, 72)" opacity="0.98"></rect><rect width="162" height="3" x="383" y="535.5" rx="1.5" transform="rotate(45, 464, 537)" opacity="0.42"></rect><rect width="233" height="3" x="412.5" y="552.5" rx="1.5" transform="rotate(45, 529, 554)" opacity="0.52"></rect><rect width="77" height="3" x="539.5" y="636.5" rx="1.5" transform="rotate(45, 578, 638)" opacity="0.58"></rect><rect width="210" height="3" x="-75" y="629.5" rx="1.5" transform="rotate(45, 30, 631)" opacity="0.45"></rect><rect width="282" height="3" x="529" y="264.5" rx="1.5" transform="rotate(45, 670, 266)" opacity="0.68"></rect><rect width="91" height="3" x="106.5" y="652.5" rx="1.5" transform="rotate(45, 152, 654)" opacity="0.14"></rect><rect width="132" height="3" x="414" y="387.5" rx="1.5" transform="rotate(45, 480, 389)" opacity="0.92"></rect><rect width="151" height="3" x="613.5" y="652.5" rx="1.5" transform="rotate(45, 689, 654)" opacity="0.46"></rect><rect width="121" height="3" x="532.5" y="451.5" rx="1.5" transform="rotate(45, 593, 453)" opacity="0.90"></rect><rect width="53" height="3" x="483.5" y="337.5" rx="1.5" transform="rotate(45, 510, 339)" opacity="0.43"></rect><rect width="296" height="3" x="-111" y="518.5" rx="1.5" transform="rotate(45, 37, 520)" opacity="0.43"></rect><rect width="122" height="3" x="168" y="559.5" rx="1.5" transform="rotate(45, 229, 561)" opacity="0.46"></rect><rect width="33" height="3" x="495.5" y="678.5" rx="1.5" transform="rotate(45, 512, 680)" opacity="0.63"></rect><rect width="213" height="3" x="660.5" y="163.5" rx="1.5" transform="rotate(45, 767, 165)" opacity="0.47"></rect><rect width="69" height="3" x="323.5" y="290.5" rx="1.5" transform="rotate(45, 358, 292)" opacity="0.37"></rect><rect width="270" height="3" x="446" y="500.5" rx="1.5" transform="rotate(45, 581, 502)" opacity="0.93"></rect><rect width="260" height="3" x="-101" y="148.5" rx="1.5" transform="rotate(45, 29, 150)" opacity="0.91"></rect><rect width="227" height="3" x="241.5" y="430.5" rx="1.5" transform="rotate(45, 355, 432)" opacity="0.47"></rect><rect width="81" height="3" x="-7.5" y="735.5" rx="1.5" transform="rotate(45, 33, 737)" opacity="0.18"></rect><rect width="62" height="3" x="375" y="530.5" rx="1.5" transform="rotate(45, 406, 532)" opacity="0.49"></rect><rect width="95" height="3" x="193.5" y="103.5" rx="1.5" transform="rotate(45, 241, 105)" opacity="0.65"></rect><rect width="239" height="3" x="408.5" y="421.5" rx="1.5" transform="rotate(45, 528, 423)" opacity="0.40"></rect><rect width="93" height="3" x="587.5" y="699.5" rx="1.5" transform="rotate(45, 634, 701)" opacity="0.71"></rect><rect width="115" height="3" x="247.5" y="193.5" rx="1.5" transform="rotate(45, 305, 195)" opacity="0.63"></rect><rect width="137" height="3" x="464.5" y="278.5" rx="1.5" transform="rotate(45, 533, 280)" opacity="0.42"></rect><rect width="194" height="3" x="29" y="227.5" rx="1.5" transform="rotate(45, 126, 229)" opacity="0.84"></rect><rect width="32" height="3" x="528" y="364.5" rx="1.5" transform="rotate(45, 544, 366)" opacity="0.64"></rect><rect width="106" height="3" x="531" y="393.5" rx="1.5" transform="rotate(45, 584, 395)" opacity="0.37"></rect><rect width="51" height="3" x="110.5" y="16.5" rx="1.5" transform="rotate(45, 136, 18)" opacity="0.98"></rect><rect width="110" height="3" x="170" y="156.5" rx="1.5" transform="rotate(45, 225, 158)" opacity="0.62"></rect><rect width="159" height="3" x="105.5" y="108.5" rx="1.5" transform="rotate(45, 185, 110)" opacity="0.16"></rect><rect width="66" height="3" x="139" y="404.5" rx="1.5" transform="rotate(45, 172, 406)" opacity="0.64"></rect><rect width="42" height="3" x="360" y="232.5" rx="1.5" transform="rotate(45, 381, 234)" opacity="0.73"></rect><rect width="48" height="3" x="-1" y="577.5" rx="1.5" transform="rotate(45, 23, 579)" opacity="0.83"></rect><rect width="40" height="3" x="17" y="780.5" rx="1.5" transform="rotate(45, 37, 782)" opacity="0.72"></rect><rect width="216" height="3" x="275" y="42.5" rx="1.5" transform="rotate(45, 383, 44)" opacity="0.11"></rect><rect width="49" height="3" x="685.5" y="736.5" rx="1.5" transform="rotate(45, 710, 738)" opacity="0.15"></rect><rect width="121" height="3" x="666.5" y="233.5" rx="1.5" transform="rotate(45, 727, 235)" opacity="0.40"></rect><rect width="39" height="3" x="533.5" y="106.5" rx="1.5" transform="rotate(45, 553, 108)" opacity="0.21"></rect><rect width="201" height="3" x="56.5" y="469.5" rx="1.5" transform="rotate(45, 157, 471)" opacity="0.60"></rect><rect width="67" height="3" x="439.5" y="595.5" rx="1.5" transform="rotate(45, 473, 597)" opacity="0.75"></rect><rect width="281" height="3" x="6.5" y="327.5" rx="1.5" transform="rotate(45, 147, 329)" opacity="0.42"></rect><rect width="179" height="3" x="211.5" y="521.5" rx="1.5" transform="rotate(45, 301, 523)" opacity="0.07"></rect><rect width="46" height="3" x="432" y="276.5" rx="1.5" transform="rotate(45, 455, 278)" opacity="0.45"></rect><rect width="97" height="3" x="327.5" y="663.5" rx="1.5" transform="rotate(45, 376, 665)" opacity="0.76"></rect><rect width="52" height="3" x="747" y="265.5" rx="1.5" transform="rotate(45, 773, 267)" opacity="0.98"></rect><rect width="135" height="3" x="150.5" y="490.5" rx="1.5" transform="rotate(45, 218, 492)" opacity="0.97"></rect><rect width="152" height="3" x="104" y="274.5" rx="1.5" transform="rotate(45, 180, 276)" opacity="0.77"></rect><rect width="142" height="3" x="263" y="58.5" rx="1.5" transform="rotate(45, 334, 60)" opacity="0.59"></rect><rect width="101" height="3" x="611.5" y="169.5" rx="1.5" transform="rotate(45, 662, 171)" opacity="0.46"></rect><rect width="48" height="3" x="735" y="616.5" rx="1.5" transform="rotate(45, 759, 618)" opacity="0.85"></rect><rect width="308" height="3" x="80" y="763.5" rx="1.5" transform="rotate(45, 234, 765)" opacity="0.45"></rect><rect width="197" height="3" x="336.5" y="226.5" rx="1.5" transform="rotate(45, 435, 228)" opacity="0.30"></rect><rect width="181" height="3" x="320.5" y="331.5" rx="1.5" transform="rotate(45, 411, 333)" opacity="0.16"></rect><rect width="370" height="3" x="415" y="220.5" rx="1.5" transform="rotate(45, 600, 222)" opacity="0.82"></rect><rect width="175" height="3" x="340.5" y="483.5" rx="1.5" transform="rotate(45, 428, 485)" opacity="0.76"></rect><rect width="203" height="3" x="168.5" y="627.5" rx="1.5" transform="rotate(45, 270, 629)" opacity="0.80"></rect><rect width="118" height="3" x="518" y="300.5" rx="1.5" transform="rotate(45, 577, 302)" opacity="0.42"></rect><rect width="200" height="3" x="-61" y="43.5" rx="1.5" transform="rotate(45, 39, 45)" opacity="0.47"></rect><rect width="36" height="3" x="744" y="682.5" rx="1.5" transform="rotate(45, 762, 684)" opacity="0.65"></rect><rect width="68" height="3" x="730" y="552.5" rx="1.5" transform="rotate(45, 764, 554)" opacity="0.36"></rect><rect width="214" height="3" x="-19" y="149.5" rx="1.5" transform="rotate(45, 88, 151)" opacity="0.25"></rect><rect width="195" height="3" x="525.5" y="769.5" rx="1.5" transform="rotate(45, 623, 771)" opacity="0.84"></rect><rect width="71" height="3" x="320.5" y="119.5" rx="1.5" transform="rotate(45, 356, 121)" opacity="0.40"></rect><rect width="281" height="3" x="543.5" y="583.5" rx="1.5" transform="rotate(45, 684, 585)" opacity="0.44"></rect><rect width="121" height="3" x="377.5" y="377.5" rx="1.5" transform="rotate(45, 438, 379)" opacity="0.37"></rect><rect width="235" height="3" x="563.5" y="454.5" rx="1.5" transform="rotate(45, 681, 456)" opacity="0.47"></rect><rect width="225" height="3" x="550.5" y="519.5" rx="1.5" transform="rotate(45, 663, 521)" opacity="0.78"></rect><rect width="79" height="3" x="264.5" y="385.5" rx="1.5" transform="rotate(45, 304, 387)" opacity="0.30"></rect><rect width="96" height="3" x="323" y="548.5" rx="1.5" transform="rotate(45, 371, 550)" opacity="0.19"></rect><rect width="35" height="3" x="346.5" y="603.5" rx="1.5" transform="rotate(45, 364, 605)" opacity="0.35"></rect><rect width="192" height="3" x="-11" y="671.5" rx="1.5" transform="rotate(45, 85, 673)" opacity="0.78"></rect><rect width="219" height="3" x="270.5" y="726.5" rx="1.5" transform="rotate(45, 380, 728)" opacity="0.34"></rect><rect width="274" height="3" x="170" y="763.5" rx="1.5" transform="rotate(45, 307, 765)" opacity="0.29"></rect><rect width="100" height="3" x="570" y="654.5" rx="1.5" transform="rotate(45, 620, 656)" opacity="0.12"></rect><rect width="79" height="3" x="163.5" y="372.5" rx="1.5" transform="rotate(45, 203, 374)" opacity="0.77"></rect><rect width="33" height="3" x="397.5" y="162.5" rx="1.5" transform="rotate(45, 414, 164)" opacity="0.17"></rect><rect width="143" height="3" x="-33.5" y="243.5" rx="1.5" transform="rotate(45, 38, 245)" opacity="0.11"></rect><rect width="217" height="3" x="-6.5" y="390.5" rx="1.5" transform="rotate(45, 102, 392)" opacity="0.31"></rect><rect width="230" height="3" x="588" y="107.5" rx="1.5" transform="rotate(45, 703, 109)" opacity="0.45"></rect><rect width="107" height="3" x="714.5" y="424.5" rx="1.5" transform="rotate(45, 768, 426)" opacity="0.72"></rect><rect width="57" height="3" x="443.5" y="316.5" rx="1.5" transform="rotate(45, 472, 318)" opacity="0.93"></rect><rect width="92" height="3" x="426" y="175.5" rx="1.5" transform="rotate(45, 472, 177)" opacity="0.63"></rect><rect width="279" height="3" x="-43.5" y="482.5" rx="1.5" transform="rotate(45, 96, 484)" opacity="0.99"></rect><rect width="70" height="3" x="277" y="136.5" rx="1.5" transform="rotate(45, 312, 138)" opacity="0.38"></rect><rect width="26" height="3" x="342" y="359.5" rx="1.5" transform="rotate(45, 355, 361)" opacity="0.80"></rect><rect width="196" height="3" x="183" y="449.5" rx="1.5" transform="rotate(45, 281, 451)" opacity="0.20"></rect><rect width="203" height="3" x="552.5" y="321.5" rx="1.5" transform="rotate(45, 654, 323)" opacity="0.12"></rect><rect width="111" height="3" x="174.5" y="332.5" rx="1.5" transform="rotate(45, 230, 334)" opacity="0.37"></rect><rect width="165" height="3" x="630.5" y="374.5" rx="1.5" transform="rotate(45, 713, 376)" opacity="0.22"></rect><rect width="271" height="3" x="494.5" y="58.5" rx="1.5" transform="rotate(45, 630, 60)" opacity="0.47"></rect><rect width="220" height="3" x="-29" y="581.5" rx="1.5" transform="rotate(45, 81, 583)" opacity="0.43"></rect><rect width="94" height="3" x="326" y="779.5" rx="1.5" transform="rotate(45, 373, 781)" opacity="0.35"></rect><rect width="254" height="3" x="36" y="764.5" rx="1.5" transform="rotate(45, 163, 766)" opacity="0.56"></rect><rect width="154" height="3" x="471" y="171.5" rx="1.5" transform="rotate(45, 548, 173)" opacity="0.70"></rect><rect width="103" height="3" x="125.5" y="52.5" rx="1.5" transform="rotate(45, 177, 54)" opacity="0.10"></rect><rect width="37" height="3" x="163.5" y="702.5" rx="1.5" transform="rotate(45, 182, 704)" opacity="0.35"></rect><rect width="179" height="3" x="329.5" y="596.5" rx="1.5" transform="rotate(45, 419, 598)" opacity="0.55"></rect><rect width="89" height="3" x="267.5" y="326.5" rx="1.5" transform="rotate(45, 312, 328)" opacity="0.93"></rect><rect width="36" height="3" x="742" y="763.5" rx="1.5" transform="rotate(45, 760, 765)" opacity="0.80"></rect><rect width="153" height="3" x="378.5" y="62.5" rx="1.5" transform="rotate(45, 455, 64)" opacity="0.39"></rect><rect width="222" height="3" x="39" y="149.5" rx="1.5" transform="rotate(45, 150, 151)" opacity="0.75"></rect><rect width="100" height="3" x="386" y="435.5" rx="1.5" transform="rotate(45, 436, 437)" opacity="0.62"></rect><rect width="204" height="3" x="404" y="55.5" rx="1.5" transform="rotate(45, 506, 57)" opacity="0.53"></rect><rect width="230" height="3" x="23" y="597.5" rx="1.5" transform="rotate(45, 138, 599)" opacity="0.55"></rect><rect width="104" height="3" x="603" y="385.5" rx="1.5" transform="rotate(45, 655, 387)" opacity="0.70"></rect></g></svg>